<?xml version="1.0" encoding="UTF-8" standalone="no"?>
<svg
   xmlns:dc="http://purl.org/dc/elements/1.1/"
   xmlns:cc="http://creativecommons.org/ns#"
   xmlns:rdf="http://www.w3.org/1999/02/22-rdf-syntax-ns#"
   xmlns:svg="http://www.w3.org/2000/svg"
   xmlns="http://www.w3.org/2000/svg"
   xmlns:sodipodi="http://sodipodi.sourceforge.net/DTD/sodipodi-0.dtd"
   xmlns:inkscape="http://www.inkscape.org/namespaces/inkscape"
   viewBox="0 0 20 17.009451"
   x="0px"
   y="0px"
   version="1.1"
   id="svg12"
   sodipodi:docname="bot.svg"
   width="20"
   height="17.009451"
   inkscape:version="0.92.4 (5da689c313, 2019-01-14)">
  <metadata
     id="metadata18">
    <rdf:RDF>
      <cc:Work
         rdf:about="">
        <dc:format>image/svg+xml</dc:format>
        <dc:type
           rdf:resource="http://purl.org/dc/dcmitype/StillImage" />
        <dc:title>_</dc:title>
      </cc:Work>
    </rdf:RDF>
  </metadata>
  <defs
     id="defs16" />
  <sodipodi:namedview
     pagecolor="#ffffff"
     bordercolor="#ffffff"
     borderopacity="1"
     objecttolerance="10"
     gridtolerance="10"
     guidetolerance="10"
     inkscape:pageopacity="0"
     inkscape:pageshadow="2"
     inkscape:window-width="1920"
     inkscape:window-height="1017"
     id="namedview14"
     showgrid="false"
     fit-margin-top="0"
     fit-margin-left="0"
     fit-margin-right="0"
     fit-margin-bottom="0"
     inkscape:zoom="7.8666667"
     inkscape:cx="8.4711812"
     inkscape:cy="7.0339001"
     inkscape:window-x="-8"
     inkscape:window-y="32"
     inkscape:window-maximized="1"
     inkscape:current-layer="svg12" />
  <title
     id="title2">_</title>
  <g
     id="g6"
     transform="translate(-2,-2.9905492)"
     style="fill:#0066cc;fill-opacity:1">
    <path
       d="M 20.5,13 H 20 V 12 A 3,3 0 0 0 17,9 H 13 V 6.7226 a 2,2 0 1 0 -2,0 V 9 H 7 a 3,3 0 0 0 -3,3 v 1 H 3.5 a 1.5,1.5 0 0 0 0,3 H 4 v 1 a 3,3 0 0 0 3,3 h 10 a 3,3 0 0 0 3,-3 v -1 h 0.5 a 1.5,1.5 0 0 0 0,-3 z M 19,17 a 2.00226,2.00226 0 0 1 -2,2 H 7 A 2.0023,2.0023 0 0 1 5,17 v -5 a 2.00226,2.00226 0 0 1 2,-2 h 10 a 2.00222,2.00222 0 0 1 2,2 z M 10,14.5 A 1.5,1.5 0 1 1 8.5,13 1.5,1.5 0 0 1 10,14.5 Z m 7,0 A 1.5,1.5 0 1 1 15.5,13 1.5,1.5 0 0 1 17,14.5 Z"
       id="path4"
       inkscape:connector-curvature="0"
       style="fill:#0066cc;fill-opacity:1" />
  </g>
</svg>
